# xmcd
#
# Track frame offsets:
#	150
#	27757
#	58981
#	60211
#	91707
#	117637
#	138956
#	165071
#	166329
#	193088
#	222697
#	254853
#	281297
#	310360
#	311293
#	328628
#
# Disc length: 4623 seconds
#
# Revision: 1
# Processed by: cddbd v1.5.2PL0 Copyright (c) Steve Scherf et al.
# Submitted via: audiograbber 1.83.01
#
DISCID=e2120d10
DTITLE=Karl Menrad - Die Fantastischen Abenteuer Des Pan Tau
DYEAR=2009
DGENRE=Kinderhörbuch
TTITLE0=Eine Skifahrt, die ist lustig... - Teil 1
TTITLE1=Eine Skifahrt, die ist lustig... - Teil 2
TTITLE2=Eine Skifahrt, die ist lustig... - Teil 3
TTITLE3=Pan Tau und das wahre Glück - Teil 1
TTITLE4=Pan Tau und das wahre Glück - Teil 2
TTITLE5=Pan Tau und das wahre Glück - Teil 3
TTITLE6=Pan Tau und das wahre Glück - Teil 4
TTITLE7=Pan Tau und das wahre Glück - Teil 5
TTITLE8=Prunkbett, Eisbären und Indianer - Teil 1
TTITLE9=Prunkbett, Eisbären und Indianer - Teil 2
TTITLE10=Prunkbett, Eisbären und Indianer - Teil 3
TTITLE11=Prunkbett, Eisbären und Indianer - Teil 4
TTITLE12=Prunkbett, Eisbären und Indianer - Teil 5
TTITLE13=Prunkbett, Eisbären und Indianer - Teil 6
TTITLE14=Einmal Vagabundenreise erster Klasse und zurück - Teil 1
TTITLE15=Einmal Vagabundenreise erster Klasse und zurück - Teil 2
EXTD=
EXTT0=
EXTT1=
EXTT2=
EXTT3=
EXTT4=
EXTT5=
EXTT6=
EXTT7=
EXTT8=
EXTT9=
EXTT10=
EXTT11=
EXTT12=
EXTT13=
EXTT14=
EXTT15=
PLAYORDER=
